<?xml version="1.0" encoding="UTF-8"?>
<svg version="1.1" xmlns="http://www.w3.org/2000/svg" width="256" height="256">
<path d="M0 0 C2.77774283 0.02146859 5.55290062 0.00006111 8.33056641 -0.02539062 C22.85726442 -0.04889908 36.55360677 1.87967577 49.96728516 7.77148438 C51.00997559 8.21754028 51.00997559 8.21754028 52.07373047 8.67260742 C86.36597642 23.7175282 108.71263484 50.61182635 122.17431641 84.97070312 C125.8999493 96.93748863 126.81038253 107.7763828 126.78076172 120.25732422 C126.77979372 123.12115526 126.82145021 125.98225948 126.86572266 128.84570312 C127.07753151 161.52056173 112.61521648 189.97647816 90.09228516 213.08398438 C70.72614092 232.35397661 42.89839013 246.72360442 15.22509766 246.89257812 C14.28407196 246.9016066 13.34304626 246.91063507 12.37350464 246.91993713 C10.3885207 246.93436805 8.40348996 246.94330843 6.41845703 246.94702148 C3.44688968 246.95881724 0.47747203 247.00798886 -2.49365234 247.05859375 C-18.61386313 247.19630156 -33.56834739 244.62707578 -48.22021484 237.64648438 C-49.33033936 237.13396118 -49.33033936 237.13396118 -50.46289062 236.61108398 C-56.55815164 233.73398755 -62.22462842 230.43132144 -67.72021484 226.52148438 C-68.65736328 225.87953125 -69.59451172 225.23757812 -70.56005859 224.57617188 C-84.66334809 214.53151628 -95.7174806 202.26614867 -104.72021484 187.52148438 C-105.28844971 186.59166748 -105.28844971 186.59166748 -105.86816406 185.64306641 C-114.83465827 170.64840891 -120.98135441 153.24455855 -121.09130859 135.68554688 C-121.10033707 134.76671722 -121.10936554 133.84788757 -121.1186676 132.9012146 C-121.1330956 130.96330986 -121.14203816 129.02535723 -121.14575195 127.08740234 C-121.15754499 124.18824102 -121.20671657 121.29128527 -121.25732422 118.39257812 C-121.39711679 102.41701462 -118.76119584 87.53773823 -111.84521484 73.02148438 C-111.50353271 72.28140137 -111.16185059 71.54131836 -110.80981445 70.77880859 C-107.93271802 64.68354758 -104.63005191 59.0170708 -100.72021484 53.52148438 C-99.75728516 52.11576172 -99.75728516 52.11576172 -98.77490234 50.68164062 C-89.50859337 37.67119574 -78.31869545 26.91100045 -64.72021484 18.52148438 C-64.16366211 18.1739209 -63.60710938 17.82635742 -63.03369141 17.46826172 C-43.29966047 5.24847245 -23.12154625 -0.21186263 0 0 Z " fill="#212120" transform="translate(125.72021484375,4.478515625)"/>
<path d="M0 0 C11.92534121 10.30298914 16.85478331 21.44775221 18.2109375 36.91015625 C19.44097405 55.76173839 19.13745491 71.96631692 6.7265625 87.25390625 C-4.6243132 99.23930295 -20.28199494 105.62090288 -36.67785645 106.29606628 C-39.44930363 106.36094293 -42.21788884 106.37320793 -44.98999023 106.35620117 C-47.09003421 106.3477029 -49.18733225 106.37656298 -51.28710938 106.40820312 C-68.12159184 106.49552579 -84.37592085 102.57906971 -97.015625 90.81640625 C-100.12329607 87.47600211 -102.50087028 83.84480972 -104.7890625 79.91015625 C-105.25441406 79.13800781 -105.71976562 78.36585938 -106.19921875 77.5703125 C-112.83391266 65.63560072 -112.14908317 52.15769658 -111.7890625 38.91015625 C-111.76199219 37.11964844 -111.76199219 37.11964844 -111.734375 35.29296875 C-111.15162617 20.99848277 -104.74656443 10.42736876 -94.6015625 0.72265625 C-70.28045644 -19.87248912 -25.10885355 -18.97762187 0 0 Z " fill="#FCFCFC" transform="translate(175.7890625,117.08984375)"/>
<path d="M0 0 C6.28331448 5.25190248 9.44045539 11.60614392 10.28393555 19.73706055 C10.4012621 22.66422042 10.40964187 25.57083782 10.375 28.5 C10.38660156 29.48097656 10.39820313 30.46195313 10.41015625 31.47265625 C10.37696318 39.78198713 8.90730357 47.77033412 3.6015625 54.42578125 C-2.41094022 60.33563148 -8.99850464 61.45687469 -17.125 61.5625 C-17.87676514 61.57724365 -18.62853027 61.5919873 -19.40307617 61.60717773 C-25.89161421 61.48853262 -31.0953183 59.56228307 -35.98828125 55.24609375 C-44.25297231 43.95832985 -44.03060168 30.53503943 -42.71875 17.125 C-41.54263762 10.61114681 -38.33053335 5.39527038 -33.75 0.6875 C-23.45121717 -5.63220765 -10.47491834 -6.43355711 0 0 Z " fill="#222221" transform="translate(146,135)"/>
<path d="M0 0 C3.86365496 2.89142806 7.69897622 5.88416915 10.140625 10.1015625 C10.0709253 13.02894992 9.54341216 14.51752112 7.890625 16.9140625 C5.41305263 18.59527232 4.10667964 18.49816156 1.140625 18.1015625 C-1.62109375 16.08984375 -1.62109375 16.08984375 -4.546875 13.4140625 C-17.42946777 2.14327526 -32.9334156 -2.18712746 -49.90527344 -1.07421875 C-63.85293512 0.18044347 -75.24701694 7.08814409 -85.421875 16.37890625 C-88.21523833 18.35306206 -89.51467678 18.56720809 -92.859375 18.1015625 C-94.671875 17.0390625 -94.671875 17.0390625 -95.859375 15.1015625 C-96.671875 11.9765625 -96.671875 11.9765625 -95.859375 8.1015625 C-72.16375012 -20.74085402 -28.66197555 -19.02967229 0 0 Z " fill="#F6F6F6" transform="translate(171.859375,42.8984375)"/>
<path d="M0 0 C1.6895681 1.1332469 3.35742256 2.29965495 5 3.5 C5.90621094 4.16 6.81242187 4.82 7.74609375 5.5 C10 7.5 10 7.5 11.0625 11 C11 14.5 11 14.5 9.375 17 C7 18.5 7 18.5 4.640625 18.30078125 C1.63691953 17.38989424 -0.1573702 16.11456207 -2.625 14.1875 C-13.55317003 6.36556976 -24.12089999 5.10353843 -37.34375 6.97265625 C-44.17738486 8.41358683 -48.78157708 10.94574 -54 15.5 C-57.64480198 18.43935644 -57.64480198 18.43935644 -60.5625 18.9375 C-63 18.5 -63 18.5 -64.8125 16.875 C-66.34577032 13.80845936 -66.37267409 11.90118649 -66 8.5 C-50.09024236 -10.64802689 -20.06926247 -12.42637423 0 0 Z " fill="#F4F4F4" transform="translate(156,56.5)"/>
<path d="M0 0 C5.50530713 3.6413055 5.50530713 3.6413055 7.48046875 6.640625 C7.41232724 10.66097424 7.36278625 12.7583075 4.48046875 15.640625 C0.74625982 16.13851952 -0.93263028 16.0661282 -4.01953125 13.828125 C-4.84453125 13.10625 -5.66953125 12.384375 -6.51953125 11.640625 C-11.4767274 8.48604563 -15.7793998 7.74857755 -21.51953125 8.640625 C-25.15297858 9.92747093 -28.37483352 11.44363144 -31.05859375 14.25 C-32.51953125 15.640625 -32.51953125 15.640625 -35.51953125 16.078125 C-38.51953125 15.640625 -38.51953125 15.640625 -40.45703125 14.015625 C-41.97225413 10.62865622 -41.77968558 9.1410537 -40.51953125 5.640625 C-30.24980474 -6.63443272 -13.34964717 -7.71072738 0 0 Z " fill="#F5F4F4" transform="translate(145.51953125,73.359375)"/>
<path d="M0 0 C0.66 0.33 1.32 0.66 2 1 C1.27683594 1.68835937 1.27683594 1.68835937 0.5390625 2.390625 C-0.09257813 3.00421875 -0.72421875 3.6178125 -1.375 4.25 C-2.00148438 4.85328125 -2.62796875 5.4565625 -3.2734375 6.078125 C-4.97310161 7.9700588 -5.98459866 9.68201309 -7 12 C-7.4375 9.375 -7.4375 9.375 -7 6 C-4.9050512 3.66877878 -2.53926173 1.82671379 0 0 Z " fill="#D0CFCF" transform="translate(97,59)"/>
</svg>
