<?xml version="1.0" encoding="UTF-8"?>
<svg version="1.1" xmlns="http://www.w3.org/2000/svg" width="256" height="256">
<path d="M0 0 C1.22847656 0.3403125 2.45695313 0.680625 3.72265625 1.03125 C20.70124944 6.2284202 36.82212678 14.79439868 49.796875 26.953125 C52.07714181 29.13249324 52.07714181 29.13249324 55.0625 31.375 C59.61866248 35.44646434 63.26602385 40.17858518 67 45 C67.91652344 46.175625 67.91652344 46.175625 68.8515625 47.375 C88.22183552 73.55582563 94.39094414 107.08393492 90.50390625 139 C89.84627023 142.74518142 89.0300602 146.34079421 88 150 C87.6596875 151.22847656 87.319375 152.45695313 86.96875 153.72265625 C81.7715798 170.70124944 73.20560132 186.82212678 61.046875 199.796875 C58.86750676 202.07714181 58.86750676 202.07714181 56.625 205.0625 C52.55353566 209.61866248 47.82141482 213.26602385 43 217 C41.824375 217.91652344 41.824375 217.91652344 40.625 218.8515625 C14.44417437 238.22183552 -19.08393492 244.39094414 -51 240.50390625 C-54.74518142 239.84627023 -58.34079421 239.0300602 -62 238 C-63.22847656 237.6596875 -64.45695312 237.319375 -65.72265625 236.96875 C-82.70124944 231.7715798 -98.82212678 223.20560132 -111.796875 211.046875 C-114.07714181 208.86750676 -114.07714181 208.86750676 -117.0625 206.625 C-121.61866248 202.55353566 -125.26602385 197.82141482 -129 193 C-129.61101562 192.21625 -130.22203125 191.4325 -130.8515625 190.625 C-150.22183552 164.44417437 -156.39094414 130.91606508 -152.50390625 99 C-151.84627023 95.25481858 -151.0300602 91.65920579 -150 88 C-149.6596875 86.77152344 -149.319375 85.54304688 -148.96875 84.27734375 C-143.7715798 67.29875056 -135.20560132 51.17787322 -123.046875 38.203125 C-120.86750676 35.92285819 -120.86750676 35.92285819 -118.625 32.9375 C-114.55353566 28.38133752 -109.82141482 24.73397615 -105 21 C-104.21625 20.38898437 -103.4325 19.77796875 -102.625 19.1484375 C-74.36649475 -1.75903767 -33.89561848 -9.54155889 0 0 Z " fill="#4D4D4D" transform="translate(159,9)"/>
<path d="M0 0 C0.91517395 -0.00807175 1.8303479 -0.01614349 2.77325439 -0.02445984 C4.7134003 -0.03830504 6.65357061 -0.04902524 8.59375 -0.05688477 C11.55255748 -0.07407025 14.51023967 -0.11794882 17.46875 -0.16210938 C19.35415845 -0.17223876 21.23957641 -0.1807541 23.125 -0.1875 C24.00645691 -0.20500809 24.88791382 -0.22251617 25.79608154 -0.24055481 C31.29899226 -0.22125043 34.49297067 0.51877263 38.828125 4.23828125 C41.26332871 7.89108681 41.12390115 10.6192005 41.11865234 14.84326172 C41.12536957 15.61595398 41.13208679 16.38864624 41.13900757 17.18475342 C41.15802109 19.74172377 41.16191349 22.29843209 41.1640625 24.85546875 C41.17048834 26.63282378 41.17721654 28.41017773 41.18423462 30.18753052 C41.19621593 33.91492159 41.19991459 37.64221993 41.19873047 41.36962891 C41.19852728 46.14364693 41.22582485 50.91706963 41.26027489 55.69094658 C41.28252401 59.3627088 41.28656862 63.03432733 41.28551102 66.70615005 C41.28787015 68.46600521 41.29671127 70.22586414 41.31217575 71.98565292 C41.33179509 74.44902844 41.32601431 76.91111499 41.31396484 79.37451172 C41.33082336 80.46256607 41.33082336 80.46256607 41.34802246 81.57260132 C41.30450108 85.07792719 40.91200003 87.10323784 39.04776001 90.10476685 C35.70240396 93.32032494 33.23386136 94.47632323 28.61376953 94.54467773 C27.38196457 94.56865883 27.38196457 94.56865883 26.12527466 94.59312439 C25.2460434 94.59848709 24.36681213 94.60384979 23.4609375 94.609375 C22.09242142 94.62291771 22.09242142 94.62291771 20.69625854 94.63673401 C18.76807939 94.65122641 16.83985117 94.66012074 14.91162109 94.66381836 C11.97018102 94.67571228 9.03084112 94.72490457 6.08984375 94.77539062 C4.21355187 94.78485572 2.33724715 94.79209034 0.4609375 94.796875 C-0.4142453 94.81640732 -1.2894281 94.83593964 -2.19113159 94.85606384 C-6.48874667 94.8244995 -9.30188974 94.58542872 -12.71142578 91.82836914 C-16.49932011 87.84089435 -16.33407597 85.02882134 -16.36474609 79.76269531 C-16.37292358 78.99175537 -16.38110107 78.22081543 -16.38952637 77.42651367 C-16.41438725 74.86898579 -16.43089925 72.31151349 -16.4453125 69.75390625 C-16.45063618 68.88062431 -16.45595985 68.00734238 -16.46144485 67.10759735 C-16.48818112 62.48417539 -16.50755334 57.86078046 -16.52197266 53.23730469 C-16.53861004 48.46440519 -16.58337843 43.69219759 -16.6343441 38.91955948 C-16.66802342 35.24777445 -16.67955088 31.57615339 -16.68519974 27.90422821 C-16.69191174 26.14516673 -16.70713259 24.38611602 -16.73109055 22.6272049 C-16.76275731 20.16138112 -16.76277719 17.69741955 -16.75537109 15.23144531 C-16.77177643 14.50809998 -16.78818176 13.78475464 -16.80508423 13.03948975 C-16.73556922 7.36955601 -15.04623641 5.07431973 -11.171875 1.23828125 C-7.73424989 -0.48053131 -3.78484242 0.03142966 0 0 Z " fill="#FCFCFC" transform="translate(113.171875,78.76171875)"/>
<path d="M0 0 C12.21 0 24.42 0 37 0 C37 17.16 37 34.32 37 52 C24.79 52 12.58 52 0 52 C0 34.84 0 17.68 0 0 Z " fill="#4F4F4F" transform="translate(107,100)"/>
<path d="M0 0 C2.17325278 -0.01718848 4.34497385 -0.06107205 6.51782227 -0.10522461 C7.90518089 -0.11535424 9.29255243 -0.1238695 10.67993164 -0.13061523 C11.93974854 -0.14519775 13.19956543 -0.15978027 14.49755859 -0.17480469 C18.52261183 0.38459373 20.15932395 1.29661934 22.87915039 4.29516602 C23.51025391 6.79711914 23.51025391 6.79711914 23.50805664 9.57641602 C23.50999023 10.58317383 23.51192383 11.58993164 23.51391602 12.62719727 C23.49006836 13.67262695 23.4662207 14.71805664 23.44165039 15.79516602 C23.45260742 16.8405957 23.46356445 17.88602539 23.47485352 18.96313477 C23.40153113 26.59843887 23.40153113 26.59843887 21.13598633 29.62011719 C18.46455462 31.60288363 17.46248354 31.67881616 14.20336914 31.37719727 C2.38931514 30.58885341 2.38931514 30.58885341 -7.87084961 35.68579102 C-11.17169002 38.87939911 -14.16285784 42.30772989 -16.97949219 45.93408203 C-17.35614014 46.38323975 -17.73278809 46.83239746 -18.12084961 47.29516602 C-18.45084961 47.29516602 -18.78084961 47.29516602 -19.12084961 47.29516602 C-19.21987094 41.54773973 -19.29239043 35.8008121 -19.34057617 30.05273438 C-19.36066735 28.09821928 -19.3879455 26.14376412 -19.42260742 24.18945312 C-19.47123562 21.37688394 -19.49384321 18.56511075 -19.51147461 15.75219727 C-19.53211975 14.88117874 -19.55276489 14.01016022 -19.57403564 13.11274719 C-19.57556087 8.97070818 -19.47113345 6.85368414 -17.22143555 3.26660156 C-12.46441117 -1.19794654 -6.16533659 0.03399364 0 0 Z " fill="#58C5EE" transform="translate(183.120849609375,78.704833984375)"/>
<path d="M0 0 C4.44132607 3.91259677 7.33571558 7.14286682 8.125 13.0625 C7.98264386 24.13069025 -0.82030475 34.97016059 -7.375 43.3125 C-11.7674025 41.81509006 -13.56720129 38.45561456 -15.875 34.6875 C-16.26937256 34.05231445 -16.66374512 33.41712891 -17.07006836 32.76269531 C-18.1837078 30.95294452 -19.27994378 29.13352812 -20.375 27.3125 C-20.86097656 26.53648437 -21.34695312 25.76046875 -21.84765625 24.9609375 C-24.75318176 19.89969952 -25.28593297 15.06922073 -24.375 9.3125 C-23.01306598 5.08163986 -20.76671278 2.61803597 -17.25 -0.125 C-11.5587883 -2.9522471 -5.60985754 -2.80492877 0 0 Z " fill="#58C5EE" transform="translate(81.375,152.6875)"/>
<path d="M0 0 C1 1 1 1 1.1875 4.4375 C1 8 1 8 -1 10 C-4.13704316 10.333728 -6.16554166 10.52849028 -8.875 8.8125 C-10.40659584 6.34492892 -10.42822025 4.85480169 -10 2 C-7.59027568 -2.25245468 -4.23782457 -0.94173879 0 0 Z " fill="#4D5456" transform="translate(77,162)"/>
</svg>
