<?xml version="1.0" encoding="UTF-8"?>
<svg version="1.1" xmlns="http://www.w3.org/2000/svg" width="256" height="256">
<path d="M0 0 C6.69896834 3.28989766 12.92368613 6.90828697 16 14 C17.56625132 23.96402435 16.52775046 33.97274128 16 44 C25.57 44 35.14 44 45 44 C45 60.17 45 76.34 45 93 C15.96 93 -13.08 93 -43 93 C-43 70.23 -43 47.46 -43 24 C-33.43 24 -23.86 24 -14 24 C-14 20.7 -14 17.4 -14 14 C-12.71484375 11.57958984 -12.71484375 11.57958984 -10.9375 9.9609375 C-10.30585937 9.36152344 -9.67421875 8.76210937 -9.0234375 8.14453125 C-8.35570312 7.56058594 -7.68796875 6.97664063 -7 6.375 C-6.33226562 5.75238281 -5.66453125 5.12976563 -4.9765625 4.48828125 C-3.33810474 2.96685619 -1.68130762 1.47369935 0 0 Z M-3 16 C-3 18.64 -3 21.28 -3 24 C-0.36 24 2.28 24 5 24 C5 21.36 5 18.72 5 16 C2.36 16 -0.28 16 -3 16 Z M-32 35 C-32 37.97 -32 40.94 -32 44 C-29.36 44 -26.72 44 -24 44 C-24 41.03 -24 38.06 -24 35 C-26.64 35 -29.28 35 -32 35 Z M-3 35 C-3 37.97 -3 40.94 -3 44 C-0.36 44 2.28 44 5 44 C5 41.03 5 38.06 5 35 C2.36 35 -0.28 35 -3 35 Z M-32 54 C-32 56.97 -32 59.94 -32 63 C-29.36 63 -26.72 63 -24 63 C-24 60.03 -24 57.06 -24 54 C-26.64 54 -29.28 54 -32 54 Z M-3 54 C-3 56.97 -3 59.94 -3 63 C-0.36 63 2.28 63 5 63 C5 60.03 5 57.06 5 54 C2.36 54 -0.28 54 -3 54 Z M26 54 C26 56.97 26 59.94 26 63 C28.97 63 31.94 63 35 63 C35 60.03 35 57.06 35 54 C32.03 54 29.06 54 26 54 Z M-32 74 C-32 76.97 -32 79.94 -32 83 C-29.36 83 -26.72 83 -24 83 C-24 80.03 -24 77.06 -24 74 C-26.64 74 -29.28 74 -32 74 Z M-3 74 C-3 76.97 -3 79.94 -3 83 C-0.36 83 2.28 83 5 83 C5 80.03 5 77.06 5 74 C2.36 74 -0.28 74 -3 74 Z M26 74 C26 76.97 26 79.94 26 83 C28.97 83 31.94 83 35 83 C35 80.03 35 77.06 35 74 C32.03 74 29.06 74 26 74 Z " fill="#444444" transform="translate(127,79)"/>
<path d="M0 0 C1.2065625 0.0309375 1.2065625 0.0309375 2.4375 0.0625 C3.59319567 2.37389135 3.56942579 3.93188589 3.6875 6.5 C3.86478832 8.90860452 3.86478832 8.90860452 4.4375 11.0625 C6.79339996 12.94301585 6.79339996 12.94301585 9.4375 14.0625 C12.03977163 17.65275272 11.6667547 21.57013553 11.5625 25.8125 C11.55347656 26.50988281 11.54445313 27.20726562 11.53515625 27.92578125 C11.51169888 29.63816958 11.47583104 31.35038004 11.4375 33.0625 C12.0975 33.0625 12.7575 33.0625 13.4375 33.0625 C13.480221 34.72861905 13.47813832 36.39632885 13.4375 38.0625 C11.62634044 39.87365956 8.82471773 39.44449448 6.375 39.625 C5.27027344 39.70878906 4.16554688 39.79257813 3.02734375 39.87890625 C2.17269531 39.93949219 1.31804688 40.00007813 0.4375 40.0625 C0.4375 40.7225 0.4375 41.3825 0.4375 42.0625 C-2.0375 42.5575 -2.0375 42.5575 -4.5625 43.0625 C-3.9025 43.7225 -3.2425 44.3825 -2.5625 45.0625 C-2.5625 46.0525 -2.5625 47.0425 -2.5625 48.0625 C-3.8825 47.4025 -5.2025 46.7425 -6.5625 46.0625 C-6.8925 47.3825 -7.2225 48.7025 -7.5625 50.0625 C-8.2225 50.0625 -8.8825 50.0625 -9.5625 50.0625 C-9.8925 46.4325 -10.2225 42.8025 -10.5625 39.0625 C-11.5525 39.0625 -12.5425 39.0625 -13.5625 39.0625 C-13.5625 37.0825 -13.5625 35.1025 -13.5625 33.0625 C-12.9025 33.0625 -12.2425 33.0625 -11.5625 33.0625 C-11.60890625 31.96550781 -11.6553125 30.86851562 -11.703125 29.73828125 C-11.7406579 28.2838815 -11.77705643 26.82945217 -11.8125 25.375 C-11.84601562 24.65376953 -11.87953125 23.93253906 -11.9140625 23.18945312 C-11.98387332 19.36731057 -11.80568997 17.4697894 -9.796875 14.10546875 C-7.59907111 12.09593827 -6.47987391 11.37507578 -3.5625 11.0625 C-3.57410156 10.35222656 -3.58570313 9.64195312 -3.59765625 8.91015625 C-3.61119141 7.53150391 -3.61119141 7.53150391 -3.625 6.125 C-3.63660156 5.20847656 -3.64820313 4.29195312 -3.66015625 3.34765625 C-3.52086326 0.08820018 -3.27895972 0.07997463 0 0 Z " fill="#2A99DA" transform="translate(27.5625,192.9375)"/>
<path d="M0 0 C2.5 1.5 2.5 1.5 4 4 C4.62388198 8.91307062 4.75777063 10.86334406 2 15 C1.34 15.66 0.68 16.32 0 17 C0.66 17.495 1.32 17.99 2 18.5 C4.31513371 21.39391713 4.57117174 23.35096326 4.40625 27.02734375 C3.78208323 30.05815356 2.14552985 31.85447015 0 34 C0.66 34.515625 1.32 35.03125 2 35.5625 C4 38 4 38 4.5625 41.4375 C4 45 4 45 1.9375 47.9375 C-1.74062512 50.52001338 -3.59231863 50.72125695 -8 50 C-10.72235378 48.065696 -11.75092091 46.69386319 -12.875 43.5625 C-13.0662255 39.64237719 -11.98075293 37.09391673 -9.375 34.1875 C-8.92125 33.795625 -8.4675 33.40375 -8 33 C-8.639375 32.443125 -9.27875 31.88625 -9.9375 31.3125 C-12.28590287 28.67944224 -12.91646559 27.50844512 -13 24 C-11.66423314 20.75599476 -10.48216332 18.48216332 -8 16 C-8.639375 15.443125 -9.27875 14.88625 -9.9375 14.3125 C-12.28590287 11.67944224 -12.91646559 10.50844512 -13 7 C-10.23302629 0.14844605 -7.27261697 -0.9917205 0 0 Z " fill="#71CFFA" transform="translate(60,193)"/>
<path d="M0 0 C3.63 0 7.26 0 11 0 C11 0.99 11 1.98 11 3 C13.475 3.495 13.475 3.495 16 4 C16.02465746 8.1117256 16.04283959 12.22342278 16.05493164 16.33520508 C16.0599708 17.73495228 16.06680216 19.1346942 16.07543945 20.53442383 C16.0875232 22.54245777 16.09269807 24.55052957 16.09765625 26.55859375 C16.10551147 28.37315063 16.10551147 28.37315063 16.11352539 30.22436523 C16 33 16 33 15 34 C13.59651265 34.09860131 12.18819523 34.13078937 10.78125 34.1328125 C9.50701172 34.13474609 9.50701172 34.13474609 8.20703125 34.13671875 C6.86705078 34.13091797 6.86705078 34.13091797 5.5 34.125 C4.60667969 34.12886719 3.71335937 34.13273437 2.79296875 34.13671875 C1.94347656 34.13542969 1.09398438 34.13414063 0.21875 34.1328125 C-0.56564453 34.13168457 -1.35003906 34.13055664 -2.15820312 34.12939453 C-4 34 -4 34 -5 33 C-5.08775605 30.85441173 -5.10695219 28.70595579 -5.09765625 26.55859375 C-5.09443359 25.25341797 -5.09121094 23.94824219 -5.08789062 22.60351562 C-5.07953401 21.2148431 -5.07106905 19.82617123 -5.0625 18.4375 C-5.05748666 17.04492344 -5.05292347 15.65234519 -5.04882812 14.25976562 C-5.03699434 10.8398013 -5.0205088 7.41992156 -5 4 C-3.35 3.67 -1.7 3.34 0 3 C0 2.01 0 1.02 0 0 Z M6 11 C5.32845067 12.28913487 4.66291141 13.58140204 4 14.875 C3.62875 15.59429688 3.2575 16.31359375 2.875 17.0546875 C1.86326254 18.94848977 1.86326254 18.94848977 2 21 C2.66 21 3.32 21 4 21 C4 23.31 4 25.62 4 28 C6.64465038 24.8745041 7.84414715 21.91211733 9 18 C8.34 18 7.68 18 7 18 C7 15.69 7 13.38 7 11 C6.67 11 6.34 11 6 11 Z " fill="#47C1F8" transform="translate(67,16)"/>
<path d="M0 0 C3.8786861 3.01675585 5.36583442 5.27635954 6.1875 10.125 C6.58922561 14.84527594 5.16350849 17.00406051 2.25 20.75 C1.59 22.73 0.93 24.71 0.25 26.75 C-4.04 26.75 -8.33 26.75 -12.75 26.75 C-13.08 24.44 -13.41 22.13 -13.75 19.75 C-14.41 19.75 -15.07 19.75 -15.75 19.75 C-18.36604773 14.62254644 -19.42647352 11.51287774 -17.75 5.75 C-13.56338577 -0.95159472 -7.50370401 -3.41077455 0 0 Z " fill="#47C1F8" transform="translate(190.75,16.25)"/>
<path d="M0 0 C2.875 -0.125 2.875 -0.125 6 0 C8 2 8 2 8.25 4.5 C8 7 8 7 6 9 C5.01 9 4.02 9 3 9 C2.79503906 9.68707031 2.59007812 10.37414062 2.37890625 11.08203125 C2.10949219 11.98308594 1.84007812 12.88414063 1.5625 13.8125 C1.29566406 14.70582031 1.02882812 15.59914063 0.75390625 16.51953125 C0.19612127 18.35473055 -0.39344575 20.18033726 -1 22 C-0.071875 21.95875 0.85625 21.9175 1.8125 21.875 C5 22 5 22 8 24 C8 24.66 8 25.32 8 26 C4.54337669 28.30441554 3.05142119 28.25860135 -1 28 C-1.66 27.67 -2.32 27.34 -3 27 C-3.59070014 28.94603274 -3.59070014 28.94603274 -4 31 C-3.67 31.33 -3.34 31.66 -3 32 C-2.8125 34.9375 -2.8125 34.9375 -3 38 C-5 40 -5 40 -7.4375 40.375 C-10 40 -10 40 -11.8125 38.1875 C-13 36 -13 36 -13 33 C-20.41468325 30.10700793 -20.41468325 30.10700793 -28 31 C-31.93031537 36.39901217 -33.40936635 41.45013834 -33 48 C-35 50 -35 50 -37.5 50.25 C-40 50 -40 50 -42 48 C-42.1875 44.9375 -42.1875 44.9375 -42 42 C-41 41 -41 41 -38.4375 40.9375 C-37.633125 40.958125 -36.82875 40.97875 -36 41 C-35.731875 40.113125 -35.46375 39.22625 -35.1875 38.3125 C-34 35 -34 35 -32.375 32.625 C-30.93875377 29.88307538 -30.85649666 28.80962375 -30.9375 25.8125 C-30.958125 24.554375 -30.97875 23.29625 -31 22 C-29 20 -29 20 -26.5625 19.5625 C-24 20 -24 20 -22.1875 22.375 C-21 25 -21 25 -21 27 C-20.0925 27.28875 -19.185 27.5775 -18.25 27.875 C-15 29 -15 29 -12.875 30.1875 C-11.02859001 31.16474254 -11.02859001 31.16474254 -8.9765625 30.8203125 C-6.83704944 30.1883738 -6.83704944 30.1883738 -6.09375 28.13671875 C-5.8978125 27.32847656 -5.701875 26.52023438 -5.5 25.6875 C-4.40925435 21.52338264 -3.19156857 17.45413965 -1.8125 13.375 C-1.46832031 12.35148437 -1.12414063 11.32796875 -0.76953125 10.2734375 C-0.38861328 9.14808594 -0.38861328 9.14808594 0 8 C-0.495 7.505 -0.495 7.505 -1 7 C-0.71269945 4.66055264 -0.38063221 2.3260857 0 0 Z " fill="#46C0F8" transform="translate(42,103)"/>
<path d="M0 0 C1.32 0 2.64 0 4 0 C4 2.31 4 4.62 4 7 C5.98 7 7.96 7 10 7 C10 4.69 10 2.38 10 0 C11.32 0 12.64 0 14 0 C14 2.31 14 4.62 14 7 C14.99 7.33 15.98 7.66 17 8 C17.79227003 20.02489843 17.79227003 20.02489843 14.5625 24 C13.716875 24.66 12.87125 25.32 12 26 C11.12761142 28.67790896 11.12761142 28.67790896 11 31 C8.03 31 5.06 31 2 31 C1.62875 29.63875 1.62875 29.63875 1.25 28.25 C0.29212752 24.93879774 0.29212752 24.93879774 -2.125 23.3125 C-4.88449331 19.90912492 -4.39376302 16.82033475 -4.3359375 12.55859375 C-4 10 -4 10 -2 7 C-1.34 7 -0.68 7 0 7 C0 4.69 0 2.38 0 0 Z " fill="#47C1F8" transform="translate(226,112)"/>
<path d="M0 0 C1.25103516 -0.03287109 1.25103516 -0.03287109 2.52734375 -0.06640625 C6.30073042 0.86967272 7.75537962 2.46997694 10.0625 5.5625 C10.43603815 8.44621451 10.54962853 10.54539962 10.375 13.375 C10.271875 15.746875 10.16875 18.11875 10.0625 20.5625 C3.7925 20.5625 -2.4775 20.5625 -8.9375 20.5625 C-9.02 18.005 -9.1025 15.4475 -9.1875 12.8125 C-9.22391602 12.01360352 -9.26033203 11.21470703 -9.29785156 10.39160156 C-9.35130608 6.96878806 -9.18817089 4.92674718 -7.23046875 2.08203125 C-4.59094905 0.33284358 -3.14718732 -0.00484929 0 0 Z " fill="#FCFDFE" transform="translate(26.9375,205.4375)"/>
<path d="M0 0 C5.68421053 3.05263158 5.68421053 3.05263158 7 7 C7.3686858 11.97725826 7.16456308 15.04429615 4 19 C0.58071806 21.56446145 -2.8501922 21.29641484 -7 21 C-9.90651969 20.11189676 -10.8417835 19.19777062 -12.75 16.8125 C-14.32923797 13.25921457 -14.41323619 10.85687108 -14 7 C-12.74544028 4.17724064 -11.71615278 2.53711459 -9.25 0.6875 C-5.96856187 -0.31516165 -3.41780831 -0.35356638 0 0 Z " fill="#47C1F8" transform="translate(191,214)"/>
<path d="M0 0 C1.27423828 -0.00193359 1.27423828 -0.00193359 2.57421875 -0.00390625 C3.91419922 0.00189453 3.91419922 0.00189453 5.28125 0.0078125 C6.17457031 0.00394531 7.06789063 0.00007813 7.98828125 -0.00390625 C8.83777344 -0.00261719 9.68726563 -0.00132813 10.5625 0 C11.34689453 0.00112793 12.13128906 0.00225586 12.93945312 0.00341797 C14.78125 0.1328125 14.78125 0.1328125 15.78125 1.1328125 C15.90662741 3.27589146 15.95699364 5.42360136 15.96875 7.5703125 C15.98292969 8.74464844 15.99710938 9.91898438 16.01171875 11.12890625 C15.78125 14.1328125 15.78125 14.1328125 13.78125 16.1328125 C11.1849308 16.51297238 8.6150165 16.63876564 5.99609375 16.7890625 C4.89974609 16.95921875 4.89974609 16.95921875 3.78125 17.1328125 C3.45125 17.7928125 3.12125 18.4528125 2.78125 19.1328125 C-0.60902872 18.52740559 -2.78231348 17.59964116 -5.21875 15.1328125 C-5.64453125 11.8125 -5.64453125 11.8125 -5.53125 8.0078125 C-5.50675781 6.74710937 -5.48226563 5.48640625 -5.45703125 4.1875 C-5.10213262 -0.36218412 -4.1776355 0.00600728 0 0 Z " fill="#0286D4" transform="translate(14.21875,102.8671875)"/>
<path d="M0 0 C8.91 0 17.82 0 27 0 C27 1.65 27 3.3 27 5 C25.18884044 6.81115956 22.38721773 6.38199448 19.9375 6.5625 C18.83277344 6.64628906 17.72804688 6.73007813 16.58984375 6.81640625 C15.30787109 6.90728516 15.30787109 6.90728516 14 7 C14 7.66 14 8.32 14 9 C12.35 9.33 10.7 9.66 9 10 C9.66 10.66 10.32 11.32 11 12 C11 12.99 11 13.98 11 15 C9.68 14.34 8.36 13.68 7 13 C6.67 14.32 6.34 15.64 6 17 C5.34 17 4.68 17 4 17 C3.67 13.37 3.34 9.74 3 6 C2.01 6 1.02 6 0 6 C0 4.02 0 2.04 0 0 Z " fill="#88C6EA" transform="translate(14,226)"/>
<path d="M0 0 C2.875 -0.125 2.875 -0.125 6 0 C8 2 8 2 8.25 4.5 C8 7 8 7 6 9 C5.01 9 4.02 9 3 9 C2.79503906 9.68707031 2.59007812 10.37414062 2.37890625 11.08203125 C2.10949219 11.98308594 1.84007812 12.88414063 1.5625 13.8125 C1.29566406 14.70582031 1.02882813 15.59914063 0.75390625 16.51953125 C0.19612127 18.35473055 -0.39344575 20.18033726 -1 22 C-0.071875 21.95875 0.85625 21.9175 1.8125 21.875 C5 22 5 22 8 24 C8 24.66 8 25.32 8 26 C4.54337669 28.30441554 3.05142119 28.25860135 -1 28 C-1.66 27.67 -2.32 27.34 -3 27 C-3.66 28.32 -4.32 29.64 -5 31 C-5.66 31 -6.32 31 -7 31 C-6.33654156 25.74272175 -4.74419696 21.07140932 -2.9375 16.125 C-2.65583984 15.34125 -2.37417969 14.5575 -2.08398438 13.75 C-1.39386218 11.83169424 -0.69755684 9.91561481 0 8 C-0.33 7.67 -0.66 7.34 -1 7 C-0.71269945 4.66055264 -0.38063221 2.3260857 0 0 Z " fill="#0185D3" transform="translate(42,103)"/>
<path d="M0 0 C2.31282587 3.46923881 2.42478586 4.92205575 2 9 C0.875 10.875 0.875 10.875 -1 12 C-4.11811483 12.38976435 -6.11019567 12.50422245 -8.875 10.9375 C-10.66235303 7.85928089 -10.43386742 5.47093932 -10 2 C-7.01983499 -1.66789539 -4.31348256 -1.31279904 0 0 Z " fill="#DFEFF9" transform="translate(60,229)"/>
<path d="M0 0 C1.670625 0.061875 1.670625 0.061875 3.375 0.125 C3.375 4.125 3.375 4.125 2.0625 5.875 C0.375 7.125 0.375 7.125 -2.625 7.125 C-1.305 7.125 0.015 7.125 1.375 7.125 C4.10719193 5.20640833 4.10719193 5.20640833 6.375 3.125 C6.73289474 8.49342105 6.73289474 8.49342105 5.3125 11 C2.30767901 12.74473477 -0.23310131 12.43335443 -3.625 12.125 C-5.625 10.125 -5.625 10.125 -5.890625 8.25 C-5.88546875 7.54875 -5.8803125 6.8475 -5.875 6.125 C-5.88015625 5.42375 -5.8853125 4.7225 -5.890625 4 C-5.34417976 0.14273948 -3.61576724 0.12468163 0 0 Z " fill="#F5FBFE" transform="translate(55.625,194.875)"/>
<path d="M0 0 C1.670625 0.061875 1.670625 0.061875 3.375 0.125 C3.375 4.125 3.375 4.125 2.0625 5.875 C0.375 7.125 0.375 7.125 -2.625 7.125 C-1.305 7.125 0.015 7.125 1.375 7.125 C4.10719193 5.20640833 4.10719193 5.20640833 6.375 3.125 C6.735 8.525 6.735 8.525 5.25 11 C2.52247535 12.63651479 0.49526907 12.45002803 -2.625 12.125 C-3.615 11.465 -4.605 10.805 -5.625 10.125 C-5.98828125 8.25 -5.98828125 8.25 -5.9375 6.125 C-5.93169922 5.073125 -5.93169922 5.073125 -5.92578125 4 C-5.30895761 0.15486562 -3.63836049 0.12546071 0 0 Z " fill="#F7FCFE" transform="translate(55.625,211.875)"/>
<path d="M0 0 C2.375 1.625 2.375 1.625 4 4 C4.72125695 8.40768137 4.52001338 10.25937488 1.9375 13.9375 C-1.74062512 16.52001338 -3.59231863 16.72125695 -8 16 C-10.72235378 14.065696 -11.75092091 12.69386319 -12.875 9.5625 C-13.02932606 6.39881585 -12.58872546 4.74416216 -11 2 C-7.19854297 -1.16788086 -4.69187265 -1.49740617 0 0 Z M-8.25 2.0625 C-10.34007101 4.00448479 -10.34007101 4.00448479 -10.4375 7.5 C-10.24887668 10.86213565 -10.24887668 10.86213565 -8.875 12.9375 C-6.11019567 14.50422245 -4.11811483 14.38976435 -1 14 C1 13 1 13 2 11 C2.5518663 7.29461199 2.49369241 5.67001113 0.25 2.625 C-2.79202238 0.42798384 -4.87419729 0.46837094 -8.25 2.0625 Z " fill="#2E9BDB" transform="translate(60,227)"/>
<path d="M0 0 C0.94875 0.350625 1.8975 0.70125 2.875 1.0625 C3 3.9375 3 3.9375 2.875 7.0625 C0.875 9.0625 0.875 9.0625 -1.5625 9.4375 C-4.125 9.0625 -4.125 9.0625 -6.0625 7.375 C-7.125 5.0625 -7.125 5.0625 -6.4375 2.375 C-4.46589177 -1.09878592 -3.8597741 -1.15793223 0 0 Z " fill="#AFE2FB" transform="translate(36.125,133.9375)"/>
<path d="M0 0 C6.72 0.72 6.72 0.72 8 2 C8.1875 4.4375 8.1875 4.4375 8 7 C6 9 6 9 3.5 9.25 C1 9 1 9 -1 7 C-1.1875 3.9375 -1.1875 3.9375 -1 1 C-0.67 0.67 -0.34 0.34 0 0 Z " fill="#B1E4FB" transform="translate(1,144)"/>
<path d="M0 0 C2.875 -0.125 2.875 -0.125 6 0 C8 2 8 2 8.25 4.5 C8 7 8 7 6 9 C0.43181818 8.43181818 0.43181818 8.43181818 -1 7 C-0.71269945 4.66055264 -0.38063221 2.3260857 0 0 Z " fill="#B0E3FB" transform="translate(42,103)"/>
<path d="M0 0 C1.65 0 3.3 0 5 0 C5.01417969 0.61488281 5.02835938 1.22976562 5.04296875 1.86328125 C5.18872867 4.33332103 5.39531948 6.59843198 6 9 C8.40858714 10.8624438 8.40858714 10.8624438 11 12 C11.8125 14.1875 11.8125 14.1875 12 16 C11.34 16 10.68 16 10 16 C9.443125 15.360625 8.88625 14.72125 8.3125 14.0625 C5.30579108 11.38084069 2.94340119 11.30333855 -1 11 C-0.67 7.37 -0.34 3.74 0 0 Z " fill="#41A5DE" transform="translate(26,195)"/>
<path d="M0 0 C1.9375 0.3125 1.9375 0.3125 4 1 C5 4 5 4 3.5625 7.1875 C2.7890625 8.5796875 2.7890625 8.5796875 2 10 C0.35 10 -1.3 10 -3 10 C-3.75 8.375 -3.75 8.375 -4 6 C-2.0625 2.75 -2.0625 2.75 0 0 Z " fill="#716E6E" transform="translate(161,67)"/>
<path d="M0 0 C2.05078125 0.03255208 4.1015625 0.06510417 6.15234375 0.09765625 C6.53453142 1.75380282 6.86629477 3.42222649 7.15234375 5.09765625 C6.15234375 6.09765625 6.15234375 6.09765625 4.3046875 6.1953125 C2.25390625 6.16276042 0.203125 6.13020833 -1.84765625 6.09765625 C-2.22984392 4.44150968 -2.56160727 2.77308601 -2.84765625 1.09765625 C-1.84765625 0.09765625 -1.84765625 0.09765625 0 0 Z " fill="#706D6D" transform="translate(192.84765625,124.90234375)"/>
<path d="M0 0 C0.33 0 0.66 0 1 0 C1.14285714 8.57142857 1.14285714 8.57142857 0 12 C-2.64 12.33 -5.28 12.66 -8 13 C-8.33 12.01 -8.66 11.02 -9 10 C-8.15115234 9.29423828 -8.15115234 9.29423828 -7.28515625 8.57421875 C-6.55167969 7.95160156 -5.81820313 7.32898438 -5.0625 6.6875 C-4.33160156 6.07261719 -3.60070312 5.45773438 -2.84765625 4.82421875 C-0.76179634 3.04024481 -0.76179634 3.04024481 0 0 Z " fill="#39B5F1" transform="translate(35,117)"/>
<path d="M0 0 C1.65 0.33 3.3 0.66 5 1 C4.45276317 4.37462715 3.9451 6.08235 2 9 C-0.625 9.1875 -0.625 9.1875 -3 9 C-2.5020163 5.26512223 -2.12508244 3.18762365 0 0 Z " fill="#706E6E" transform="translate(90,187)"/>
<path d="M0 0 C1.670625 0.061875 1.670625 0.061875 3.375 0.125 C4.035 1.445 4.695 2.765 5.375 4.125 C3.375 6.125 3.375 6.125 -0.25 6.25 C-1.36375 6.20875 -2.4775 6.1675 -3.625 6.125 C-4.285 4.805 -4.945 3.485 -5.625 2.125 C-3.625 0.125 -3.625 0.125 0 0 Z " fill="#706E6E" transform="translate(59.625,124.875)"/>
<path d="M0 0 C2.375 0.25 2.375 0.25 5 1 C6.375 2.8125 6.375 2.8125 7 5 C6.625 7.25 6.625 7.25 6 9 C3.625 8.6875 3.625 8.6875 1 8 C-1 5 -1 5 -0.625 2.3125 C-0.41875 1.549375 -0.2125 0.78625 0 0 Z " fill="#706D6D" transform="translate(93,67)"/>
<path d="M0 0 C0.66 0.33 1.32 0.66 2 1 C2 1.66 2 2.32 2 3 C2.99 3 3.98 3 5 3 C4.67 4.98 4.34 6.96 4 9 C1.69 9 -0.62 9 -3 9 C-3.33 7.02 -3.66 5.04 -4 3 C-3.01 3 -2.02 3 -1 3 C-0.67 2.01 -0.34 1.02 0 0 Z " fill="#E1F1FA" transform="translate(19,106)"/>
<path d="M0 0 C1.65 0.33 3.3 0.66 5 1 C5.33 3.31 5.66 5.62 6 8 C5.01 8.33 4.02 8.66 3 9 C0.9375 7.3125 0.9375 7.3125 -1 5 C-0.75 2.25 -0.75 2.25 0 0 Z " fill="#716E6E" transform="translate(161,186)"/>
<path d="M0 0 C3.125 0.1875 3.125 0.1875 6.125 2.1875 C6.125 2.8475 6.125 3.5075 6.125 4.1875 C2.6897952 6.47763653 1.139669 6.36592973 -2.875 6.1875 C-3.25718767 4.53135343 -3.58895102 2.86292976 -3.875 1.1875 C-2.875 0.1875 -2.875 0.1875 0 0 Z " fill="#61717B" transform="translate(43.875,124.8125)"/>
<path d="M0 0 C2.64 0 5.28 0 8 0 C8 0.66 8 1.32 8 2 C6.35 2.33 4.7 2.66 3 3 C3.66 3.66 4.32 4.32 5 5 C5 5.99 5 6.98 5 8 C3.68 7.34 2.36 6.68 1 6 C0.67 7.32 0.34 8.64 0 10 C-0.66 10 -1.32 10 -2 10 C-2 7.69 -2 5.38 -2 3 C-1.34 3 -0.68 3 0 3 C0 2.01 0 1.02 0 0 Z " fill="#6CCBF7" transform="translate(20,233)"/>
<path d="M0 0 C1.4540625 0.0309375 1.4540625 0.0309375 2.9375 0.0625 C3.31968767 1.71864657 3.65145102 3.38707024 3.9375 5.0625 C2.9375 6.0625 2.9375 6.0625 -0.125 6.125 C-1.094375 6.104375 -2.06375 6.08375 -3.0625 6.0625 C-3.44468767 4.40635343 -3.77645102 2.73792976 -4.0625 1.0625 C-3.0625 0.0625 -3.0625 0.0625 0 0 Z " fill="#706E6E" transform="translate(179.0625,124.9375)"/>
<path d="M0 0 C1.4540625 0.0309375 1.4540625 0.0309375 2.9375 0.0625 C3.31968767 1.71864657 3.65145102 3.38707024 3.9375 5.0625 C2.9375 6.0625 2.9375 6.0625 -0.125 6.125 C-1.094375 6.104375 -2.06375 6.08375 -3.0625 6.0625 C-3.44468767 4.40635343 -3.77645102 2.73792976 -4.0625 1.0625 C-3.0625 0.0625 -3.0625 0.0625 0 0 Z " fill="#706E6E" transform="translate(75.0625,124.9375)"/>
<path d="M0 0 C3.63 0 7.26 0 11 0 C11 1.32 11 2.64 11 4 C7.37 4 3.74 4 0 4 C0 2.68 0 1.36 0 0 Z " fill="#47C1F8" transform="translate(179,45)"/>
<path d="M0 0 C1.65 0.33 3.3 0.66 5 1 C5.33 2.65 5.66 4.3 6 6 C4.02 6.99 4.02 6.99 2 8 C0.4375 6.8125 0.4375 6.8125 -1 5 C-0.6875 2.3125 -0.6875 2.3125 0 0 Z " fill="#706D6D" transform="translate(168,198)"/>
<path d="M0 0 C1.4540625 0.0309375 1.4540625 0.0309375 2.9375 0.0625 C4.0625 3.8125 4.0625 3.8125 2.9375 6.0625 C0.9575 6.0625 -1.0225 6.0625 -3.0625 6.0625 C-3.44468767 4.40635343 -3.77645102 2.73792976 -4.0625 1.0625 C-3.0625 0.0625 -3.0625 0.0625 0 0 Z " fill="#716E6E" transform="translate(211.0625,124.9375)"/>
<path d="M0 0 C2.375 -0.1875 2.375 -0.1875 5 0 C7 3 7 3 6.625 5.1875 C6.41875 5.785625 6.2125 6.38375 6 7 C1.125 6.125 1.125 6.125 0 5 C-0.04063832 3.33382885 -0.042721 1.66611905 0 0 Z " fill="#706E6E" transform="translate(101,83)"/>
<path d="M0 0 C1.67542976 0.28604898 3.34385343 0.61781233 5 1 C5.38218767 2.65614657 5.71395102 4.32457024 6 6 C5 7 5 7 2.4375 7.0625 C1.2309375 7.0315625 1.2309375 7.0315625 0 7 C-0.38133299 5.0085944 -0.71325582 3.00720923 -1 1 C-0.67 0.67 -0.34 0.34 0 0 Z " fill="#716D6D" transform="translate(85,53)"/>
<path d="M0 0 C2.625 -0.1875 2.625 -0.1875 5 0 C5.125 2.375 5.125 2.375 5 5 C4.34 5.66 3.68 6.32 3 7 C1.68 7 0.36 7 -1 7 C-1.625 5.1875 -1.625 5.1875 -2 3 C-1.34 2.01 -0.68 1.02 0 0 Z " fill="#716E6E" transform="translate(97,175)"/>
<path d="M0 0 C1.32 0.33 2.64 0.66 4 1 C4.125 3.375 4.125 3.375 4 6 C3.34 6.66 2.68 7.32 2 8 C-0.0625 7.75 -0.0625 7.75 -2 7 C-2.33 6.34 -2.66 5.68 -3 5 C-1.5625 2.375 -1.5625 2.375 0 0 Z " fill="#706E6E" transform="translate(151,84)"/>
<path d="M0 0 C1.65 0 3.3 0 5 0 C5.33 1.98 5.66 3.96 6 6 C4.35 6.33 2.7 6.66 1 7 C-0.0625 4.625 -0.0625 4.625 -1 2 C-0.67 1.34 -0.34 0.68 0 0 Z " fill="#716D6D" transform="translate(154,175)"/>
<path d="M0 0 C1.32 0.33 2.64 0.66 4 1 C3.67 2.98 3.34 4.96 3 7 C1.35 7 -0.3 7 -2 7 C-2.33 6.01 -2.66 5.02 -3 4 C-1.5625 1.8125 -1.5625 1.8125 0 0 Z " fill="#716E6E" transform="translate(170,53)"/>
<path d="M0 0 C1.65 0 3.3 0 5 0 C5.125 2.375 5.125 2.375 5 5 C4.34 5.66 3.68 6.32 3 7 C0.875 6.625 0.875 6.625 -1 6 C-0.67 4.02 -0.34 2.04 0 0 Z " fill="#706D6D" transform="translate(81,202)"/>
<path d="M0 0 C0.66 0 1.32 0 2 0 C0.58707905 4.8274799 -1.42974154 8.7162359 -4 13 C-4.66 13 -5.32 13 -6 13 C-5.53198701 8.00786149 -3.08284263 3.87036007 0 0 Z " fill="#0285D3" transform="translate(12,132)"/>
<path d="M0 0 C0 0.99 0 1.98 0 3 C-0.9075 2.7525 -1.815 2.505 -2.75 2.25 C-6.04484485 1.63002996 -6.04484485 1.63002996 -8.25 3.75 C-9.57032921 5.44756613 -10.80707212 7.21060818 -12 9 C-13 7 -13 7 -12.375 4.5625 C-9.41862533 -0.94710734 -5.76459761 -1.47466451 0 0 Z " fill="#2395D7" transform="translate(60,227)"/>
<path d="M0 0 C3.3 1.65 6.6 3.3 10 5 C10 5.99 10 6.98 10 8 C6.37 6.35 2.74 4.7 -1 3 C-0.67 2.01 -0.34 1.02 0 0 Z " fill="#0286D3" transform="translate(20,129)"/>
<path d="M0 0 C1.65 0 3.3 0 5 0 C5 1.98 5 3.96 5 6 C3.35 6 1.7 6 0 6 C0 4.02 0 2.04 0 0 Z " fill="#46C0F9" transform="translate(185,237)"/>
<path d="M0 0 C1.65 0 3.3 0 5 0 C5.5625 1.9375 5.5625 1.9375 6 4 C5 5 5 5 2.4375 5.0625 C1.2309375 5.0315625 1.2309375 5.0315625 0 5 C0 3.35 0 1.7 0 0 Z " fill="#46C0F8" transform="translate(201,222)"/>
<path d="M0 0 C1.65 0 3.3 0 5 0 C5.5625 1.9375 5.5625 1.9375 6 4 C5 5 5 5 2.4375 5.0625 C1.2309375 5.0315625 1.2309375 5.0315625 0 5 C0 3.35 0 1.7 0 0 Z " fill="#46C0F8" transform="translate(169,222)"/>
<path d="M0 0 C0.99 0 1.98 0 3 0 C3 2.97 3 5.94 3 9 C2.01 9 1.02 9 0 9 C0 6.03 0 3.06 0 0 Z " fill="#F1F8FC" transform="translate(26,195)"/>
<path d="M0 0 C2.0625 0.4375 2.0625 0.4375 4 1 C3.67 2.32 3.34 3.64 3 5 C1.68 5 0.36 5 -1 5 C-1 1 -1 1 0 0 Z " fill="#45C0F9" transform="translate(175,233)"/>
<path d="M0 0 C2.0625 0.4375 2.0625 0.4375 4 1 C3.67 2.32 3.34 3.64 3 5 C1.68 5 0.36 5 -1 5 C-1 1 -1 1 0 0 Z " fill="#46C1F9" transform="translate(198,210)"/>
<path d="M0 0 C1.65 0 3.3 0 5 0 C5 1.65 5 3.3 5 5 C3.35 5 1.7 5 0 5 C0 3.35 0 1.7 0 0 Z " fill="#46C0F9" transform="translate(185,206)"/>
<path d="M0 0 C1.32 0.66 2.64 1.32 4 2 C3.34 3.32 2.68 4.64 2 6 C0.68 5.34 -0.64 4.68 -2 4 C-1.34 2.68 -0.68 1.36 0 0 Z " fill="#46C1F8" transform="translate(198,233)"/>
<path d="M0 0 C1.32 0.66 2.64 1.32 4 2 C3.34 3.32 2.68 4.64 2 6 C0.68 5.34 -0.64 4.68 -2 4 C-1.34 2.68 -0.68 1.36 0 0 Z " fill="#46C1F9" transform="translate(175,210)"/>
<path d="M0 0 C1.5 1.0625 1.5 1.0625 3 3 C3.1875 6.6875 3.1875 6.6875 3 10 C-0.00617269 6.99382731 0.40414684 4.17618402 0 0 Z " fill="#4AA9E0" transform="translate(61,228)"/>
<path d="M0 0 C2.0625 0.4375 2.0625 0.4375 4 1 C3.360625 1.598125 2.72125 2.19625 2.0625 2.8125 C-0.20310389 4.90810337 -0.20310389 4.90810337 -1 8 C-1.66 8 -2.32 8 -3 8 C-1.125 1.125 -1.125 1.125 0 0 Z " fill="#62CAFA" transform="translate(50,194)"/>
<path d="M0 0 C0.33 0 0.66 0 1 0 C3 5.625 3 5.625 3 9 C1.68 8.01 0.36 7.02 -1 6 C-0.67 4.02 -0.34 2.04 0 0 Z " fill="#51ACE1" transform="translate(49,233)"/>
<path d="M0 0 C0.99 0 1.98 0 3 0 C3 0.66 3 1.32 3 2 C2.01 2 1.02 2 0 2 C0 1.34 0 0.68 0 0 Z " fill="#0082D2" transform="translate(3,127)"/>
<path d="M0 0 C0.66 0 1.32 0 2 0 C2 0.66 2 1.32 2 2 C1.34 2 0.68 2 0 2 C0 1.34 0 0.68 0 0 Z " fill="#0085D3" transform="translate(22,127)"/>
<path d="M0 0 C0.66 0 1.32 0 2 0 C2 0.66 2 1.32 2 2 C1.34 2 0.68 2 0 2 C0 1.34 0 0.68 0 0 Z " fill="#0085D2" transform="translate(7,127)"/>
<path d="M0 0 C0.66 0 1.32 0 2 0 C2 0.66 2 1.32 2 2 C1.34 2 0.68 2 0 2 C0 1.34 0 0.68 0 0 Z " fill="#0085D2" transform="translate(0,127)"/>
<path d="M0 0 C2 1 2 1 2 1 Z " fill="#43C0FC" transform="translate(74,212)"/>
<path d="" fill="#49BFFA" transform="translate(0,0)"/>
<path d="" fill="#3FBFFF" transform="translate(0,0)"/>
</svg>
