<?xml version="1.0" standalone="no"?>
<!DOCTYPE svg PUBLIC "-//W3C//DTD SVG 20010904//EN"
 "http://www.w3.org/TR/2001/REC-SVG-20010904/DTD/svg10.dtd">
<svg version="1.0" xmlns="http://www.w3.org/2000/svg"
 width="125.000000pt" height="26.000000pt" viewBox="0 0 125.000000 26.000000"
 preserveAspectRatio="xMidYMid meet">

<g transform="translate(0.000000,26.000000) scale(0.100000,-0.100000)"
fill="#000000" stroke="none">
<path d="M576 245 c-26 -20 -1 -47 32 -34 14 6 31 5 42 -1 27 -15 34 -12 19 6
-9 12 -24 15 -51 11 -24 -3 -36 -1 -32 5 7 10 64 7 99 -6 17 -7 17 -5 -4 13
-27 24 -77 27 -105 6z"/>
<path d="M600 192 c0 -5 14 -9 30 -9 17 0 30 4 30 9 0 4 -13 8 -30 8 -16 0
-30 -4 -30 -8z"/>
<path d="M0 85 l0 -86 72 3 c59 2 73 6 76 20 3 14 -6 17 -45 20 -57 4 -64 22
-10 26 50 4 52 32 2 32 -24 0 -35 5 -35 15 0 11 12 15 46 15 38 0 45 3 42 18
-3 14 -16 18 -76 20 l-72 3 0 -86z"/>
<path d="M186 149 c-23 -18 -26 -28 -26 -80 l0 -59 34 0 c35 0 35 0 38 52 4
74 28 77 28 4 l0 -56 35 0 35 0 0 60 c0 47 -4 64 -20 80 -27 27 -89 27 -124
-1z"/>
<path d="M390 163 c-27 -10 -40 -36 -40 -78 0 -67 15 -78 101 -79 l74 -1 3 43
3 42 -35 0 c-29 0 -36 -4 -36 -20 0 -13 -7 -20 -20 -20 -16 0 -20 7 -20 34 0
34 1 35 43 38 34 2 42 7 42 23 0 17 -7 20 -50 22 -27 1 -57 -1 -65 -4z"/>
<path d="M583 160 c-66 -27 -54 -139 17 -155 60 -13 120 27 120 80 0 61 -72
101 -137 75z m72 -75 c0 -43 -22 -58 -50 -35 -32 27 -10 84 30 78 16 -2 20
-11 20 -43z"/>
<path d="M752 154 c-19 -13 -22 -24 -22 -80 l0 -64 35 0 35 0 0 55 c0 42 3 55
15 55 12 0 15 -13 15 -56 l0 -55 33 3 32 3 -3 60 c-3 45 -8 64 -24 78 -25 21
-86 22 -116 1z"/>
<path d="M1124 160 c-29 -12 -37 -26 -30 -56 5 -18 17 -27 51 -36 49 -13 60
-28 20 -28 -14 0 -25 5 -25 10 0 6 -11 10 -25 10 -31 0 -33 -23 -3 -44 52 -37
142 -8 136 42 -2 22 -11 30 -50 42 -63 20 -61 32 2 24 42 -6 49 -4 45 8 -12
32 -76 46 -121 28z"/>
<path d="M910 106 c0 -74 22 -101 83 -101 66 0 87 23 87 97 0 55 -1 58 -25 58
-23 0 -25 -3 -25 -49 0 -51 -18 -78 -45 -67 -11 4 -15 21 -15 61 0 54 0 55
-30 55 -30 0 -30 -1 -30 -54z"/>
</g>
</svg>
