<?xml version="1.0" standalone="no"?>
<!DOCTYPE svg PUBLIC "-//W3C//DTD SVG 20010904//EN"
 "http://www.w3.org/TR/2001/REC-SVG-20010904/DTD/svg10.dtd">
<svg version="1.0" xmlns="http://www.w3.org/2000/svg"
 width="1504.000000pt" height="318.000000pt" viewBox="0 0 1504.000000 318.000000"
 preserveAspectRatio="xMidYMid meet">

<g transform="translate(0.000000,318.000000) scale(0.100000,-0.100000)"
fill="#000000" stroke="none">
<path d="M7395 3169 c-242 -33 -487 -148 -658 -308 -58 -56 -62 -62 -62 -105
0 -55 32 -94 86 -102 38 -6 45 -2 171 102 144 117 337 195 524 213 282 26 551
-63 762 -252 88 -78 144 -85 194 -23 20 24 23 81 5 113 -18 32 -121 119 -206
175 -134 87 -273 144 -425 173 -101 20 -299 27 -391 14z"/>
<path d="M7370 2824 c-86 -18 -140 -38 -229 -86 -83 -44 -190 -125 -215 -163
-43 -66 3 -155 82 -155 33 0 50 9 108 57 126 103 285 162 437 163 150 0 319
-64 435 -165 54 -47 69 -55 103 -55 53 0 78 14 95 55 20 48 8 87 -40 133 -105
102 -263 185 -417 217 -87 19 -272 18 -359 -1z"/>
<path d="M7428 2495 c-73 -18 -138 -49 -200 -96 -65 -48 -81 -73 -81 -122 0
-33 6 -46 32 -69 47 -42 86 -38 159 17 78 59 131 78 218 78 82 0 152 -27 222
-86 65 -55 144 -45 172 22 21 51 6 95 -48 141 -125 108 -312 154 -474 115z"/>
<path d="M2855 2084 c-195 -20 -345 -55 -461 -108 -230 -107 -377 -272 -419
-471 -12 -57 -15 -189 -15 -732 l0 -663 425 0 424 0 3 654 c3 643 3 655 24
682 34 46 67 65 126 71 98 10 178 -33 198 -106 6 -22 10 -283 10 -668 l0 -633
395 0 396 0 -3 692 c-3 621 -5 699 -21 753 -81 281 -300 452 -652 510 -90 15
-355 27 -430 19z"/>
<path d="M9665 2084 c-195 -20 -345 -55 -461 -108 -230 -107 -377 -272 -419
-471 -12 -57 -15 -189 -15 -732 l0 -663 410 0 409 0 3 654 c3 643 3 655 24
682 34 46 67 65 126 71 98 10 178 -33 198 -106 6 -22 10 -283 10 -668 l0 -633
410 0 411 0 -3 692 c-3 621 -5 699 -21 753 -81 281 -300 452 -652 510 -90 15
-355 27 -430 19z"/>
<path d="M13920 2050 c-403 -27 -689 -182 -771 -417 -42 -119 -43 -311 -2
-416 56 -145 201 -270 385 -333 95 -32 266 -76 451 -114 219 -45 299 -73 336
-115 36 -42 39 -76 11 -122 -31 -51 -102 -68 -280 -67 -126 0 -152 3 -202 23
-85 33 -128 96 -128 189 l0 32 -321 0 -322 0 7 -78 c33 -399 294 -585 874
-622 581 -37 967 140 1056 485 54 209 19 397 -96 520 -132 142 -262 194 -700
285 -300 62 -376 90 -406 153 -30 63 15 121 117 151 62 18 207 21 262 6 80
-22 144 -89 155 -162 l7 -38 313 0 314 0 0 48 c0 64 -25 164 -56 226 -129 257
-517 398 -1004 366z"/>
<path d="M7356 2040 c-506 -58 -805 -323 -877 -775 -16 -103 -16 -337 0 -440
77 -487 414 -752 991 -781 422 -22 790 108 975 344 93 118 154 265 182 437 22
142 14 416 -17 535 -96 369 -351 591 -765 665 -107 19 -378 27 -489 15z m396
-479 c103 -40 182 -129 224 -251 16 -47 19 -85 19 -265 0 -179 -3 -218 -19
-265 -40 -119 -123 -211 -225 -252 -48 -19 -75 -22 -186 -22 -167 -1 -221 18
-311 108 -98 98 -124 188 -124 431 0 231 25 325 112 421 89 96 168 125 338
120 90 -2 127 -7 172 -25z"/>
<path d="M25 2015 l-25 -24 0 -941 0 -941 25 -24 24 -25 846 0 846 0 24 25
c25 24 25 26 25 215 0 189 0 191 -25 215 l-24 25 -521 0 -521 0 -24 25 c-23
22 -25 32 -25 120 0 88 2 98 25 120 l24 25 436 0 436 0 24 25 c25 24 25 27 25
190 0 163 0 166 -25 190 l-24 25 -421 0 -421 0 -24 25 c-23 22 -25 31 -25 125
0 94 2 103 25 125 l24 25 496 0 496 0 24 25 c25 24 25 26 25 215 0 189 0 191
-25 215 l-24 25 -836 0 -836 0 -24 -25z"/>
<path d="M4920 2033 c-364 -36 -562 -147 -643 -361 -21 -55 -22 -72 -25 -577
-3 -577 0 -615 54 -725 76 -151 229 -241 486 -287 93 -16 171 -18 806 -18
l704 0 24 28 24 28 0 469 0 469 -24 28 -24 28 -314 3 c-172 2 -328 0 -347 -3
-18 -4 -44 -17 -57 -30 l-24 -24 0 -251 0 -250 -212 0 c-117 0 -229 5 -249 10
-19 5 -48 24 -65 41 l-29 30 -3 359 c-3 411 -3 413 70 452 43 23 46 23 508 28
486 5 497 6 520 50 13 25 13 435 0 461 -27 49 -31 49 -607 47 -296 0 -554 -3
-573 -5z"/>
<path d="M10990 1386 c0 -516 3 -639 15 -712 36 -206 137 -360 307 -472 165
-107 333 -151 615 -159 214 -6 329 4 476 43 296 79 485 256 560 523 21 74 21
96 25 739 l3 662 -310 0 -310 0 -3 -627 -3 -628 -26 -55 c-51 -108 -127 -167
-247 -191 -179 -34 -341 38 -408 183 l-29 63 -3 628 -3 627 -329 0 -330 0 0
-624z"/>
</g>
</svg>
